{"title":"The.Name.Of.The.Rose[1986]720p.XviD.AC3.BRrip - CODY","uid":6068274,"size":3790317568,"categoryP":"video","categoryS":"hd___movies","magnet":"?xt=urn:btih:c4ad71e07368f129229986c33528d27f85b6858e&amp;dn=The.Name.Of.The.Rose%5B1986%5D720p.XviD.AC3.BRrip+-+CODY&amp;tr=udp%3A%2F%2Ftracker.openbittorrent.com%3A80&amp;tr=udp%3A%2F%2Fopen.demonii.com%3A1337&amp;tr=udp%3A%2F%2Ftracker.coppersurfer.tk%3A6969&amp;tr=udp%3A%2F%2Fexodus.desync.com%3A6969","seeders":2,"leechers":0,"uploader":"CODYBOSS1969","files":5,"time":1293490025,"description":"General\nComplete name : The.Name.Of.The.Rose[1986]720p.XviD.AC3.BRrip - CODY.avi\nFormat : AVI\nFormat/Info : Audio Video Interleave\nFormat profile : OpenDML\nFile size : 3.50 GiB\nDuration : 2h 11mn\nOverall bit rate : 3 807 Kbps\nWriting application : AVI-Mux GUI 1.17.8, Aug 30 2008 12:36:58\n\nVideo\nID : 0\nFormat : MPEG-4 Visual\nFormat profile : Advanced Simple@L5\nFormat settings, BVOP : Yes\nFormat settings, QPel : No\nFormat settings, GMC : No warppoints\nFormat settings, Matrix : Default (H.263)\nCodec ID : XVID\nCodec ID/Hint : XviD\nDuration : 2h 11mn\nBit rate : 3 353 Kbps\nWidth : 1 280 pixels\nHeight : 688 pixels\nDisplay aspect ratio : 1.860\nFrame rate : 25.000 fps\nColor space : YUV\nChroma subsampling : 4:2:0\nBit depth : 8 bits\nScan type : Progressive\nCompression mode : Lossy\nBits/(Pixel*Frame) : 0.152\nStream size : 3.08 GiB (88%)\nWriting library : XviD 1.2.0.dev47 (UTC 2006-11-01)\n\nAudio\nID : 1\nLanguage : English\nFormat : AC-3\nFormat/Info : Audio Coding 3\nMode extension : CM (complete main)\nCodec ID : 2000\nDuration : 2h 11mn\nBit rate mode : Constant\nBit rate : 448 Kbps\nChannel(s) : 6 channels\nChannel positions : Front: L C R, Side: L R, LFE\nSampling rate : 48.0 KHz\nBit depth : 16 bits\nCompression mode : Lossy\nStream size : 422 MiB (12%)\nAlignment : Aligned on interleaves\nInterleave, duration : 64 ms (1.60 video frames)\nInterleave, preload duration : 192 ms\n\n\nIMDB: http://www.imdb.com/title/tt0091605/\n\n\nSubtitles included: Romanian\n","torrent":{"xt":"urn:btih:c4ad71e07368f129229986c33528d27f85b6858e","amp;dn":"The.Name.Of.The.Rose%5B1986%5D720p.XviD.AC3.BRrip+-+CODY","amp;tr":["udp%3A%2F%2Ftracker.openbittorrent.com%3A80","udp%3A%2F%2Fopen.demonii.com%3A1337","udp%3A%2F%2Ftracker.coppersurfer.tk%3A6969","udp%3A%2F%2Fexodus.desync.com%3A6969"],"infoHash":"c4ad71e07368f129229986c33528d27f85b6858e","infoHashBuffer":{"type":"Buffer","data":[196,173,113,224,115,104,241,41,34,153,134,195,53,40,210,127,133,182,133,142]},"announce":[],"urlList":[]}}